:SAMPLES-PER-SECOND 30
:FULLY-SPECIFIED
:DEGREES
641
root  -19.9539 38.5147 -0.600337 6.65022 -82.715 -9.76042
RightUpLeg  6.19554 -13.7685 -20.8814
RightLeg  -2.10489 -7.48727 -0.16799
RightFoot  8.66156 -4.54425 25.712
RightToes  -1.16417e-010 0 -3.6325e-017
Spine  12.3196 -0.446253 2.52834
Spine1  -5.76554 -0.0513258 -0.592117
HEad  12.8968 -18.3143 -1.8995
LeftShoulder1  2.21252 -4.70966 -20.5209
LeftArm  -9.13219 21.33 -46.494
LeftForeArm  16.7145 -5.29411 -12.7392
LeftHand  -1.08904 -0.906035 20.1093
RightShoulder  1.38217 1.69441 20.2682
RightArm  -0.338877 -22.5471 45.9824
RightForeArm  13.9968 11.7994 11.7239
RightHand  -1.28422 2.29965 -19.4383
LeftUpLeg  2.98394 16.2247 23.298
LeftLeg  0.159855 -12.2078 1.8
LeftFoot  1.78134 2.936 -25.2491
LeftToes  6.91183e-011 3.39355e-011 2.1261e-011
642
root  -19.9097 38.518 -0.587581 5.10204 -82.6459 -8.20595
RightUpLeg  6.14997 -13.8182 -21.0808
RightLeg  -2.07867 -7.4988 -0.240101
RightFoot  8.6985 -4.56516 25.7797
RightToes  -1.16417e-010 0 -3.6325e-017
Spine  12.0082 -0.44352 2.54645
Spine1  -5.33805 -0.0165315 -0.873821
HEad  13.4677 -20.1381 -2.06124
LeftShoulder1  2.18536 -4.62706 -20.4562
LeftArm  -10.4136 21.7178 -46.0995
LeftForeArm  15.954 -5.19885 -12.4838
LeftHand  -1.02365 -0.943442 18.8274
RightShoulder  1.36127 1.63165 20.1813
RightArm  -1.54024 -22.7975 46.4154
RightForeArm  13.771 11.6684 11.6935
RightHand  -1.25937 2.28341 -19.1117
LeftUpLeg  2.93168 16.1309 23.0403
LeftLeg  0.0743212 -12.1482 1.76843
LeftFoot  1.90343 2.95927 -25.2191
LeftToes  6.91183e-011 3.39355e-011 2.1261e-011
643
root  -19.8521 38.5233 -0.581819 4.45105 -82.6321 -7.58471
RightUpLeg  6.02374 -13.7984 -21.1057
RightLeg  -1.97203 -7.59414 -0.341344
RightFoot  8.81225 -4.56408 25.6343
RightToes  -1.16417e-010 0 -3.6325e-017
Spine  11.8183 -0.411724 2.671
Spine1  -4.93357 0.0640642 -1.19147
HEad  13.6172 -21.6065 -1.97855
LeftShoulder1  2.14664 -4.5734 -20.1337
LeftArm  -9.71333 22.357 -46.0815
LeftForeArm  13.6246 -6.54818 -12.2886
LeftHand  -1.02246 -1.2237 18.0306
RightShoulder  1.34768 1.59229 20.1153
RightArm  -0.876801 -23.1254 46.927
RightForeArm  12.0426 12.612 11.232
RightHand  -1.28327 2.39705 -19.1908
LeftUpLeg  2.88668 16.0882 22.9104
LeftLeg  0.0259979 -12.0684 1.75212
LeftFoot  2.06696 2.98435 -25.1303
LeftToes  6.91183e-011 3.39355e-011 2.1261e-011
644
root  -19.7914 38.5265 -0.578271 4.12035 -82.4795 -7.2845
RightUpLeg  5.95251 -13.8142 -21.1292
RightLeg  -1.85971 -7.75855 -0.369265
RightFoot  8.92996 -4.56889 25.5171
RightToes  -1.16417e-010 0 -3.6325e-017
Spine  11.6781 -0.418174 2.65005
Spine1  -4.58138 0.0531765 -1.17901
HEad  13.6093 -22.6804 -1.8641
LeftShoulder1  2.09307 -4.45337 -19.8415
LeftArm  -7.76544 22.7614 -46.1809
LeftForeArm  10.9458 -8.15308 -12.1427
LeftHand  -1.06286 -1.51837 17.9539
RightShoulder  1.33706 1.55268 20.113
RightArm  1.24814 -23.3512 47.3178
RightForeArm  9.72139 14.2101 10.4192
RightHand  -1.28423 2.37503 -19.2567
LeftUpLeg  2.70488 16.0247 22.7951
LeftLeg  0.0629293 -12.0978 1.76894
LeftFoot  2.22104 3.00665 -25.0375
LeftToes  6.91183e-011 3.39355e-011 2.1261e-011
645
root  -19.7369 38.5258 -0.585458 3.74999 -82.2434 -6.98561
RightUpLeg  6.0065 -13.8686 -21.1979
RightLeg  -1.77138 -7.87436 -0.3342
RightFoot  8.95315 -4.57298 25.511
RightToes  -1.16417e-010 0 -3.6325e-017
Spine  11.5411 -0.414136 2.27134
Spine1  -4.23646 -0.0508459 -0.60369
HEad  13.7067 -23.4491 -2.02599
LeftShoulder1  2.04025 -4.27078 -19.7749
LeftArm  -6.27085 22.7886 -46.2556
LeftForeArm  9.47557 -9.11777 -12.0112
LeftHand  -1.10788 -1.75435 18.1015
RightShoulder  1.3081 1.47253 19.9455
RightArm  4.13838 -23.4184 47.7123
RightForeArm  7.22081 16.0166 9.37316
RightHand  -1.24901 2.23256 -19.08
LeftUpLeg  2.56071 15.961 22.7071
LeftLeg  0.0600066 -12.2396 1.81057
LeftFoot  2.34131 3.03138 -25.025
LeftToes  6.91183e-011 3.39355e-011 2.1261e-011
646
root  -19.6849 38.5224 -0.609084 3.49073 -82.027 -6.89696
RightUpLeg  6.16796 -13.8861 -21.2268
RightLeg  -1.68057 -7.97189 -0.316351
RightFoot  8.89229 -4.56638 25.5493
RightToes  -1.16417e-010 0 -3.6325e-017
Spine  11.4304 -0.390371 1.69176
Spine1  -3.84075 -0.190659 0.2507
HEad  13.9538 -24.0357 -2.43049
LeftShoulder1  2.00434 -4.10375 -19.8855
LeftArm  -6.04516 22.5784 -46.2868
LeftForeArm  9.44604 -9.36224 -11.9241
LeftHand  -1.14059 -1.9096 18.2405
RightShoulder  1.26347 1.36713 19.5729
RightArm  6.9166 -23.3063 48.2395
RightForeArm  5.0023 17.6577 8.29547
RightHand  -1.25495 2.29463 -19.0184
LeftUpLeg  2.59285 15.9797 22.7407
LeftLeg  -0.0316325 -12.4925 1.83366
LeftFoot  2.45717 3.06223 -25.0687
LeftToes  6.91183e-011 3.39355e-011 2.1261e-011
647
root  -19.6281 38.5186 -0.638383 3.54116 -81.86 -7.21956
RightUpLeg  6.38519 -13.8656 -21.1993
RightLeg  -1.5792 -8.06051 -0.319198
RightFoot  8.82618 -4.55682 25.5783
RightToes  -1.16417e-010 0 -3.6325e-017
Spine  11.4157 -0.404446 1.26743
Spine1  -3.42986 -0.323686 0.858916
HEad  14.182 -24.4597 -2.77069
LeftShoulder1  1.98485 -3.99388 -20.02
LeftArm  -6.33752 22.2752 -46.2487
LeftForeArm  9.73722 -9.37757 -11.8557
LeftHand  -1.14831 -1.86757 18.4645
RightShoulder  1.23316 1.29871 19.2919
RightArm  9.08064 -22.9993 48.7511
RightForeArm  3.33232 18.9886 7.35283
RightHand  -1.30705 2.54043 -19.1974
LeftUpLeg  2.73936 16.0888 22.9107
LeftLeg  -0.122389 -12.8334 1.81468
LeftFoot  2.59165 3.09438 -25.0897
LeftToes  6.91183e-011 3.39355e-011 2.1261e-011
648
root  -19.5574 38.5149 -0.661041 3.77696 -81.781 -7.72198
RightUpLeg  6.52427 -13.8788 -21.1819
RightLeg  -1.46135 -8.01491 -0.289655
RightFoot  8.7589 -4.54305 25.5862
RightToes  -1.16417e-010 0 -3.6325e-017
Spine  11.5034 -0.453792 1.16432
Spine1  -3.12351 -0.394099 0.967806
HEad  14.1786 -24.7615 -2.8218
LeftShoulder1  1.97425 -3.94482 -20.0543
LeftArm  -6.53993 21.9374 -46.1552
LeftForeArm  9.62265 -9.45587 -11.7879
LeftHand  -1.11751 -1.64069 18.5382
RightShoulder  1.23037 1.28887 19.2855
RightArm  10.5701 -22.5911 49.0923
RightForeArm  2.01787 20.0884 6.57151
RightHand  -1.31159 2.57762 -19.1743
LeftUpLeg  2.85755 16.211 23.1006
LeftLeg  -0.140924 -13.1169 1.76705
LeftFoot  2.71229 3.12073 -25.0888
LeftToes  6.91183e-011 3.39355e-011 2.1261e-011
649
root  -19.4679 38.5097 -0.676944 3.93712 -81.8168 -7.9976
RightUpLeg  6.43827 -13.9556 -21.2065
RightLeg  -1.31205 -7.79721 -0.217765
RightFoot  8.63673 -4.51933 25.6077
RightToes  -1.16417e-010 0 -3.6325e-017
Spine  11.5733 -0.474983 1.26469
Spine1  -2.95978 -0.364678 0.71097
HEad  13.845 -25.1139 -2.56686
LeftShoulder1  1.96774 -3.94955 -19.9427
LeftArm  -6.85549 21.6099 -46.1402
LeftForeArm  9.24444 -9.56558 -11.7015
LeftHand  -1.07887 -1.47775 18.3238
RightShoulder  1.2365 1.29735 19.3746
RightArm  11.3902 -22.2348 49.3658
RightForeArm  0.971614 21.05 5.93587
RightHand  -1.2539 2.38599 -18.7889
LeftUpLeg  2.82142 16.2706 23.1689
LeftLeg  -0.0840315 -13.1846 1.72082
LeftFoot  2.77722 3.13866 -25.1173
LeftToes  6.91183e-011 3.39355e-011 2.1261e-011
650
root  -19.3712 38.5019 -0.689774 3.90556 -81.8704 -7.92555
RightUpLeg  6.18635 -14.0568 -21.2613
RightLeg  -1.15336 -7.57237 -0.137681
RightFoot  8.46634 -4.50514 25.7413
RightToes  -1.16417e-010 0 -3.6325e-017
Spine  11.5331 -0.462215 1.3657
Spine1  -2.838 -0.292346 0.379879
HEad  13.2643 -25.6258 -2.11689
LeftShoulder1  1.95754 -3.96261 -19.7465
LeftArm  -7.2583 21.3348 -46.313
LeftForeArm  8.75548 -9.75026 -11.5751
LeftHand  -1.08594 -1.52362 18.3211
RightShoulder  1.23262 1.28913 19.3348
RightArm  11.6618 -21.9583 49.7119
RightForeArm  0.441802 21.8572 5.47639
RightHand  -1.23667 2.39144 -18.5255
LeftUpLeg  2.58819 16.2447 23.0896
LeftLeg  0.0424398 -13.09 1.70472
LeftFoot  2.80527 3.15142 -25.1682
LeftToes  6.91183e-011 3.39355e-011 2.1261e-011
651
root  -19.2843 38.4929 -0.701356 3.78729 -81.8086 -7.76608
RightUpLeg  5.98832 -14.1319 -21.3208
RightLeg  -1.00441 -7.49594 -0.0848144
RightFoot  8.30202 -4.51723 26.0141
RightToes  -1.16417e-010 0 -3.6325e-017
Spine  11.4651 -0.462937 1.3537
Spine1  -2.67194 -0.26956 0.209339
HEad  12.6263 -26.1809 -1.66108
LeftShoulder1  1.93757 -3.9287 -19.5864
LeftArm  -7.20915 21.11 -46.6011
LeftForeArm  8.07133 -10.1409 -11.4252
LeftHand  -1.12985 -1.62426 18.7817
RightShoulder  1.22066 1.26942 19.179
RightArm  11.7491 -21.6837 50.0624
RightForeArm  0.400965 22.4839 5.20038
RightHand  -1.28578 2.63873 -18.6705
LeftUpLeg  2.27484 16.1826 22.9787
LeftLeg  0.198995 -13.0584 1.7162
LeftFoot  2.85361 3.16544 -25.1941
LeftToes  6.91183e-011 3.39355e-011 2.1261e-011
652
root  -19.205 38.4855 -0.716286 3.78674 -81.6425 -7.82568
RightUpLeg  5.92418 -14.1552 -21.3289
RightLeg  -0.83488 -7.55942 -0.0802928
RightFoot  8.16946 -4.53185 26.2641
RightToes  -1.16417e-010 0 -3.6325e-017
Spine  11.4962 -0.476949 1.25245
Spine1  -2.49599 -0.298802 0.253149
HEad  12.0487 -26.6404 -1.38536
LeftShoulder1  1.91949 -3.8758 -19.5238
LeftArm  -6.63729 20.9176 -46.8573
LeftForeArm  7.33401 -10.6469 -11.2862
LeftHand  -1.147 -1.60901 19.0998
RightShoulder  1.21053 1.25538 19.0304
RightArm  11.8034 -21.4255 50.2818
RightForeArm  0.455886 22.9873 5.06239
RightHand  -1.29408 2.62409 -18.8213
LeftUpLeg  2.05473 16.1817 22.9627
LeftLeg  0.300267 -13.2187 1.70727
LeftFoot  2.93309 3.18256 -25.1911
LeftToes  6.91183e-011 3.39355e-011 2.1261e-011
653
root  -19.1227 38.4802 -0.73462 3.9624 -81.4686 -8.09348
RightUpLeg  5.88484 -14.1362 -21.2565
RightLeg  -0.64883 -7.6928 -0.111721
RightFoot  8.08652 -4.52374 26.3263
RightToes  -1.16417e-010 0 -3.6325e-017
Spine  11.6048 -0.467487 1.1649
Spine1  -2.37 -0.313992 0.383285
HEad  11.4962 -27.0695 -1.29885
LeftShoulder1  1.92352 -3.88973 -19.5297
LeftArm  -6.14704 20.7692 -47.0452
LeftForeArm  6.90418 -11.0304 -11.1728
LeftHand  -1.12708 -1.54629 18.9397
RightShoulder  1.20523 1.24844 18.9498
RightArm  11.5657 -21.2886 50.3553
RightForeArm  0.494577 23.4178 5.02187
RightHand  -1.21597 2.22395 -18.6066
LeftUpLeg  1.92425 16.2719 23.0325
LeftLeg  0.338287 -13.494 1.64595
LeftFoot  2.99562 3.19629 -25.1906
LeftToes  6.91183e-011 3.39355e-011 2.1261e-011
654
root  -19.0447 38.4746 -0.745536 4.17279 -81.2897 -8.34624
RightUpLeg  5.81616 -14.113 -21.1716
RightLeg  -0.50861 -7.86573 -0.134979
RightFoot  8.07574 -4.50591 26.2411
RightToes  -1.16417e-010 0 -3.6325e-017
Spine  11.7057 -0.447521 1.15248
Spine1  -2.29034 -0.301894 0.448718
HEad  10.9062 -27.5963 -1.21849
LeftShoulder1  1.94685 -3.97162 -19.5592
LeftArm  -6.03444 20.6809 -47.2133
LeftForeArm  6.87737 -11.2481 -11.078
LeftHand  -1.12427 -1.56935 18.8329
RightShoulder  1.20286 1.23485 18.9747
RightArm  11.0317 -21.2672 50.3042
RightForeArm  0.662029 23.7129 5.03638
RightHand  -1.15692 1.97474 -18.3054
LeftUpLeg  1.73139 16.3568 23.0781
LeftLeg  0.41471 -13.7642 1.57653
LeftFoot  3.01329 3.20237 -25.2073
LeftToes  6.91183e-011 3.39355e-011 2.1261e-011
655
root  -18.9797 38.469 -0.745263 4.28042 -81.0386 -8.4861
RightUpLeg  5.79178 -14.1099 -21.1403
RightLeg  -0.420171 -8.06556 -0.131306
RightFoot  8.10319 -4.49015 26.118
RightToes  -1.16417e-010 0 -3.6325e-017
Spine  11.8203 -0.459096 1.17872
Spine1  -2.23585 -0.306683 0.428362
HEad  10.2967 -28.1644 -0.997085
LeftShoulder1  1.95961 -4.01619 -19.5759
LeftArm  -5.92715 20.6422 -47.3871
LeftForeArm  6.95405 -11.4498 -10.9887
LeftHand  -1.14971 -1.66773 18.9901
RightShoulder  1.20056 1.20186 19.1157
RightArm  10.7218 -21.237 50.1344
RightForeArm  0.796606 23.7553 5.03819
RightHand  -1.19344 2.18287 -18.3659
LeftUpLeg  1.44847 16.3513 23.0509
LeftLeg  0.552572 -14.0129 1.56268
LeftFoot  3.02012 3.20811 -25.2394
LeftToes  6.91183e-011 3.39355e-011 2.1261e-011
